<?xml version="1.0" encoding="UTF-8" standalone="no"?>
<svg
   xmlns:osb="http://www.openswatchbook.org/uri/2009/osb"
   xmlns:dc="http://purl.org/dc/elements/1.1/"
   xmlns:cc="http://creativecommons.org/ns#"
   xmlns:rdf="http://www.w3.org/1999/02/22-rdf-syntax-ns#"
   xmlns:svg="http://www.w3.org/2000/svg"
   xmlns="http://www.w3.org/2000/svg"
   xmlns:sodipodi="http://sodipodi.sourceforge.net/DTD/sodipodi-0.dtd"
   xmlns:inkscape="http://www.inkscape.org/namespaces/inkscape"
   inkscape:version="1.0 (4035a4fb49, 2020-05-01)"
   sodipodi:docname="whatsapp-aricaguau.svg"
   id="svg17"
   version="1.1"
   height="800"
   width="800"
   viewBox="0 0 800 800"
   style="isolation:isolate">
  <metadata
     id="metadata21">
    <rdf:RDF>
      <cc:Work
         rdf:about="">
        <dc:format>image/svg+xml</dc:format>
        <dc:type
           rdf:resource="http://purl.org/dc/dcmitype/StillImage" />
        <dc:title></dc:title>
      </cc:Work>
    </rdf:RDF>
  </metadata>
  <sodipodi:namedview
     inkscape:current-layer="svg17"
     inkscape:window-maximized="1"
     inkscape:window-y="-8"
     inkscape:window-x="-8"
     inkscape:cy="400"
     inkscape:cx="170.14925"
     inkscape:zoom="0.8375"
     showgrid="false"
     id="namedview19"
     inkscape:window-height="837"
     inkscape:window-width="1600"
     inkscape:pageshadow="2"
     inkscape:pageopacity="0"
     guidetolerance="10"
     gridtolerance="10"
     objecttolerance="10"
     borderopacity="1"
     bordercolor="#666666"
     pagecolor="#ffffff" />
  <defs
     id="defs5">
    <linearGradient
       osb:paint="solid"
       id="linearGradient3049">
      <stop
         id="stop3047"
         offset="0"
         style="stop-color:#5f1fad;stop-opacity:1;" />
    </linearGradient>
    <linearGradient
       osb:paint="solid"
       id="linearGradient3009">
      <stop
         id="stop3007"
         offset="0"
         style="stop-color:#77ff33;stop-opacity:1;" />
    </linearGradient>
    <linearGradient
       osb:paint="solid"
       id="linearGradient2823">
      <stop
         id="stop2821"
         offset="0"
         style="stop-color:#000000;stop-opacity:1;" />
    </linearGradient>
    <linearGradient
       osb:paint="solid"
       id="linearGradient2791">
      <stop
         id="stop2789"
         offset="0"
         style="stop-color:#000000;stop-opacity:1;" />
    </linearGradient>
    <clipPath
       id="_clipPath_A3g8G5hPEGG2L0B6hFCxamU4cc8rfqzQ">
      <rect
         id="rect2"
         height="800"
         width="800" />
    </clipPath>
  </defs>
  <g
     transform="matrix(0.99907346,0,0,1,0.041,0)"
     style="fill:#77ff33;fill-opacity:1;fill-rule:nonzero;stroke:#5f1fad;stroke-opacity:1"
     id="g15"
     clip-path="url(#_clipPath_A3g8G5hPEGG2L0B6hFCxamU4cc8rfqzQ)">
    <g
       style="fill:#77ff33;fill-opacity:1;fill-rule:nonzero;stroke:#5f1fad;stroke-opacity:1"
       id="g9">
      <path
         style="fill:#77ff33;fill-opacity:1;fill-rule:nonzero;stroke:#5f1fad;stroke-opacity:1"
         id="path7"
         fill="rgb(37,211,102)"
         d="M 787.59,800 H 12.41 C 5.556,800 0,793.332 0,785.108 V 14.892 C 0,6.667 5.556,0 12.41,0 H 787.59 C 794.444,0 800,6.667 800,14.892 V 785.108 C 800,793.332 794.444,800 787.59,800 Z" />
    </g>
    <g
       style="fill:#77ff33;fill-opacity:1;fill-rule:nonzero;stroke:#5f1fad;stroke-opacity:1"
       id="g13">
      <path
         style="fill:#77ff33;fill-opacity:1;fill-rule:nonzero;stroke:#5f1fad;stroke-opacity:1"
         id="path11"
         fill="rgb(255,255,255)"
         fill-rule="evenodd"
         d="m 508.558,450.429 c -5.888,-2.946 -34.835,-17.189 -40.233,-19.156 -5.396,-1.965 -9.322,-2.945 -13.247,2.947 -3.925,5.894 -15.209,19.157 -18.644,23.087 -3.434,3.929 -6.869,4.422 -12.757,1.473 -5.887,-2.946 -24.859,-9.163 -47.349,-29.224 -17.503,-15.613 -29.32,-34.893 -32.754,-40.788 -3.435,-5.895 -0.367,-9.081 2.581,-12.016 2.649,-2.639 5.889,-6.878 8.832,-10.316 2.944,-3.437 3.925,-5.895 5.888,-9.822 1.962,-3.931 0.982,-7.368 -0.492,-10.315 -1.471,-2.947 -13.247,-31.93 -18.152,-43.72 -4.78,-11.48 -9.634,-9.925 -13.248,-10.107 -3.431,-0.171 -7.361,-0.207 -11.285,-0.207 -3.925,0 -10.304,1.474 -15.702,7.367 -5.396,5.895 -20.607,20.14 -20.607,49.12 0,28.983 21.098,56.979 24.042,60.909 2.945,3.931 41.518,63.401 100.584,88.905 14.047,6.068 25.015,9.69 33.566,12.403 14.104,4.482 26.94,3.849 37.085,2.333 11.312,-1.689 34.836,-14.242 39.743,-27.995 4.906,-13.757 4.906,-25.545 3.433,-28 -1.471,-2.456 -5.396,-3.93 -11.284,-6.878 z M 401.126,597.117 h -0.079 c -35.145,-0.013 -69.616,-9.456 -99.687,-27.3 l -7.152,-4.245 -74.128,19.445 19.786,-72.274 -4.656,-7.411 C 215.604,474.149 205.248,438.108 205.264,401.1 c 0.043,-107.987 87.906,-195.843 195.94,-195.843 52.314,0.018 101.489,20.417 138.469,57.439 36.978,37.02 57.331,86.229 57.31,138.562 -0.044,107.996 -87.905,195.859 -195.857,195.859 z m 166.69,-362.552 c -44.489,-44.541 -103.655,-69.081 -166.692,-69.107 -129.884,0 -235.595,105.703 -235.647,235.627 -0.017,41.532 10.834,82.069 31.455,117.807 L 163.502,641 288.421,608.232 c 34.418,18.773 73.17,28.669 112.609,28.681 h 0.096 0.001 c 129.871,0 235.59,-105.713 235.643,-235.639 0.024,-62.965 -24.464,-122.169 -68.954,-166.709" />
    </g>
  </g>
</svg>
